# xmcd
#
# Track frame offsets: 
#        150
#        34892
#        44089
#        53176
#        67282
#        81423
#        93675
#        104327
#        118726
#        127300
#        142466
#        145586
#        155680
#        163778
#        174100
#        185428
#        197260
#        206515
#        219577
#
# Disc length: 3110 seconds
#
# Revision: 0
# Processed by: cddbd v1.5.2PL0 Copyright (c) Steve Scherf et al.
# Submitted via: ExactAudioCopy v0.95b2
#
DISCID=2f0c2413
DTITLE=Ks. Jan Twardowski - Aniol i stroz
DYEAR=1900
DGENRE=Acoustic
TTITLE0=O modlitwie do Aniola Stroza
TTITLE1=General aniolow
TTITLE2=Aniol betlejemski
TTITLE3=Jaselka. Scena 1
TTITLE4=Jaselka. Scena 2
TTITLE5=O osilku
TTITLE6=Sluzacy aniol
TTITLE7=Aniol i stroz
TTITLE8=O diablach i aniolach
TTITLE9=Aniolowie i zwierzeta
TTITLE10=O aniolach i zwierzakach
TTITLE11=Kto jest podobny do aniola?
TTITLE12=Podobne do aniola
TTITLE13=Obiecanki cacanki
TTITLE14=O klotnich i zgodzie
TTITLE15=Troche o aniolach i troche o zwierzakach
TTITLE16=Pochwala
TTITLE17=Na skrzydlach
TTITLE18=Zloty i bialy
EXTD=
EXTT0=
EXTT1=
EXTT2=
EXTT3=
EXTT4=
EXTT5=
EXTT6=
EXTT7=
EXTT8=
EXTT9=
EXTT10=
EXTT11=
EXTT12=
EXTT13=
EXTT14=
EXTT15=
EXTT16=
EXTT17=
EXTT18=
PLAYORDER=
